<mxfile host="app.diagrams.net" modified="2023-03-04T06:49:27.312Z" agent="5.0 (Macintosh; Intel Mac OS X 10_15_7) AppleWebKit/537.36 (KHTML, like Gecko) Chrome/110.0.0.0 Safari/537.36" etag="AnsZg6VggecueDShFytk" version="20.8.23" type="github" pages="3">
  <diagram id="b3hCAYV5xsGDJO1Qj9GW" name="第 1 页">
    <mxGraphModel dx="1148" dy="670" grid="1" gridSize="10" guides="1" tooltips="1" connect="1" arrows="1" fold="1" page="1" pageScale="1" pageWidth="827" pageHeight="1169" math="0" shadow="0">
      <root>
        <mxCell id="0" />
        <mxCell id="1" parent="0" />
        <mxCell id="eQosBWIMDGggvK-4iNOV-1" value="" style="rounded=0;whiteSpace=wrap;html=1;fontFamily=Times New Roman;" parent="1" vertex="1">
          <mxGeometry x="40" y="40" width="480" height="350" as="geometry" />
        </mxCell>
        <mxCell id="eQosBWIMDGggvK-4iNOV-6" value="" style="strokeWidth=1;html=1;shadow=0;dashed=0;shape=mxgraph.android.rrect;rSize=0;fillColor=#dae8fc;strokeColor=#6c8ebf;fontFamily=Times New Roman;" parent="1" vertex="1">
          <mxGeometry x="40" y="40" width="240" height="30" as="geometry" />
        </mxCell>
        <mxCell id="eQosBWIMDGggvK-4iNOV-7" value="私有算法/模型/数据集" style="strokeWidth=1;html=1;shadow=0;dashed=0;shape=mxgraph.android.anchor;fontStyle=1;fontColor=#666666;fontFamily=Times New Roman;" parent="eQosBWIMDGggvK-4iNOV-6" vertex="1">
          <mxGeometry width="129.72972972972974" height="30" as="geometry" />
        </mxCell>
        <mxCell id="eQosBWIMDGggvK-4iNOV-8" value="公共算法/模型/数据集" style="strokeWidth=1;html=1;shadow=0;dashed=0;shape=mxgraph.android.rrect;rSize=0;fontStyle=1;fillColor=none;strokeColor=none;fontColor=#666666;fontFamily=Times New Roman;" parent="eQosBWIMDGggvK-4iNOV-6" vertex="1">
          <mxGeometry x="130.05405405405406" width="109.94594594594595" height="30" as="geometry" />
        </mxCell>
        <mxCell id="eQosBWIMDGggvK-4iNOV-9" value="" style="strokeWidth=1;html=1;shadow=0;dashed=0;shape=mxgraph.android.rrect;rSize=0;fillColor=#33b5e5;strokeColor=none;fontFamily=Times New Roman;" parent="eQosBWIMDGggvK-4iNOV-8" vertex="1">
          <mxGeometry y="27" width="109.94594594594595" height="3" as="geometry" />
        </mxCell>
        <mxCell id="eQosBWIMDGggvK-4iNOV-14" value="" style="endArrow=none;html=1;rounded=0;entryX=0.974;entryY=-0.005;entryDx=0;entryDy=0;entryPerimeter=0;fontFamily=Times New Roman;fillColor=#dae8fc;strokeColor=#6c8ebf;" parent="1" target="eQosBWIMDGggvK-4iNOV-7" edge="1">
          <mxGeometry width="50" height="50" relative="1" as="geometry">
            <mxPoint x="166" y="70" as="sourcePoint" />
            <mxPoint x="200" y="100" as="targetPoint" />
          </mxGeometry>
        </mxCell>
        <mxCell id="--crbwpS26JUq3i9r7HL-14" value="Table" style="shape=table;startSize=30;container=1;collapsible=0;childLayout=tableLayout;strokeColor=default;fontSize=16;rounded=1;fillStyle=auto;fontFamily=Times New Roman;fillColor=#0055AB;" vertex="1" parent="1">
          <mxGeometry x="50" y="90" width="180" height="150" as="geometry" />
        </mxCell>
        <mxCell id="--crbwpS26JUq3i9r7HL-15" value="" style="shape=tableRow;horizontal=0;startSize=0;swimlaneHead=0;swimlaneBody=0;strokeColor=inherit;top=0;left=0;bottom=0;right=0;collapsible=0;dropTarget=0;fillColor=none;points=[[0,0.5],[1,0.5]];portConstraint=eastwest;fontSize=16;rounded=1;fillStyle=auto;fontFamily=Times New Roman;" vertex="1" parent="--crbwpS26JUq3i9r7HL-14">
          <mxGeometry y="30" width="180" height="40" as="geometry" />
        </mxCell>
        <mxCell id="--crbwpS26JUq3i9r7HL-16" value="" style="shape=partialRectangle;html=1;whiteSpace=wrap;connectable=0;strokeColor=inherit;overflow=hidden;fillColor=none;top=0;left=0;bottom=0;right=0;pointerEvents=1;fontSize=16;rounded=1;fillStyle=auto;fontFamily=Times New Roman;" vertex="1" parent="--crbwpS26JUq3i9r7HL-15">
          <mxGeometry width="60" height="40" as="geometry">
            <mxRectangle width="60" height="40" as="alternateBounds" />
          </mxGeometry>
        </mxCell>
        <mxCell id="--crbwpS26JUq3i9r7HL-17" value="" style="shape=partialRectangle;html=1;whiteSpace=wrap;connectable=0;strokeColor=inherit;overflow=hidden;fillColor=none;top=0;left=0;bottom=0;right=0;pointerEvents=1;fontSize=16;rounded=1;fillStyle=auto;fontFamily=Times New Roman;" vertex="1" parent="--crbwpS26JUq3i9r7HL-15">
          <mxGeometry x="60" width="60" height="40" as="geometry">
            <mxRectangle width="60" height="40" as="alternateBounds" />
          </mxGeometry>
        </mxCell>
        <mxCell id="--crbwpS26JUq3i9r7HL-18" value="" style="shape=partialRectangle;html=1;whiteSpace=wrap;connectable=0;strokeColor=inherit;overflow=hidden;fillColor=none;top=0;left=0;bottom=0;right=0;pointerEvents=1;fontSize=16;rounded=1;fillStyle=auto;fontFamily=Times New Roman;" vertex="1" parent="--crbwpS26JUq3i9r7HL-15">
          <mxGeometry x="120" width="60" height="40" as="geometry">
            <mxRectangle width="60" height="40" as="alternateBounds" />
          </mxGeometry>
        </mxCell>
        <mxCell id="--crbwpS26JUq3i9r7HL-19" value="" style="shape=tableRow;horizontal=0;startSize=0;swimlaneHead=0;swimlaneBody=0;strokeColor=inherit;top=0;left=0;bottom=0;right=0;collapsible=0;dropTarget=0;fillColor=none;points=[[0,0.5],[1,0.5]];portConstraint=eastwest;fontSize=16;rounded=1;fillStyle=auto;fontFamily=Times New Roman;" vertex="1" parent="--crbwpS26JUq3i9r7HL-14">
          <mxGeometry y="70" width="180" height="40" as="geometry" />
        </mxCell>
        <mxCell id="--crbwpS26JUq3i9r7HL-20" value="" style="shape=partialRectangle;html=1;whiteSpace=wrap;connectable=0;strokeColor=inherit;overflow=hidden;fillColor=none;top=0;left=0;bottom=0;right=0;pointerEvents=1;fontSize=16;rounded=1;fillStyle=auto;fontFamily=Times New Roman;" vertex="1" parent="--crbwpS26JUq3i9r7HL-19">
          <mxGeometry width="60" height="40" as="geometry">
            <mxRectangle width="60" height="40" as="alternateBounds" />
          </mxGeometry>
        </mxCell>
        <mxCell id="--crbwpS26JUq3i9r7HL-21" value="" style="shape=partialRectangle;html=1;whiteSpace=wrap;connectable=0;strokeColor=inherit;overflow=hidden;fillColor=none;top=0;left=0;bottom=0;right=0;pointerEvents=1;fontSize=16;rounded=1;fillStyle=auto;fontFamily=Times New Roman;" vertex="1" parent="--crbwpS26JUq3i9r7HL-19">
          <mxGeometry x="60" width="60" height="40" as="geometry">
            <mxRectangle width="60" height="40" as="alternateBounds" />
          </mxGeometry>
        </mxCell>
        <mxCell id="--crbwpS26JUq3i9r7HL-22" value="" style="shape=partialRectangle;html=1;whiteSpace=wrap;connectable=0;strokeColor=inherit;overflow=hidden;fillColor=none;top=0;left=0;bottom=0;right=0;pointerEvents=1;fontSize=16;rounded=1;fillStyle=auto;fontFamily=Times New Roman;" vertex="1" parent="--crbwpS26JUq3i9r7HL-19">
          <mxGeometry x="120" width="60" height="40" as="geometry">
            <mxRectangle width="60" height="40" as="alternateBounds" />
          </mxGeometry>
        </mxCell>
        <mxCell id="--crbwpS26JUq3i9r7HL-23" value="" style="shape=tableRow;horizontal=0;startSize=0;swimlaneHead=0;swimlaneBody=0;strokeColor=inherit;top=0;left=0;bottom=0;right=0;collapsible=0;dropTarget=0;fillColor=none;points=[[0,0.5],[1,0.5]];portConstraint=eastwest;fontSize=16;rounded=1;fillStyle=auto;fontFamily=Times New Roman;" vertex="1" parent="--crbwpS26JUq3i9r7HL-14">
          <mxGeometry y="110" width="180" height="40" as="geometry" />
        </mxCell>
        <mxCell id="--crbwpS26JUq3i9r7HL-24" value="" style="shape=partialRectangle;html=1;whiteSpace=wrap;connectable=0;strokeColor=inherit;overflow=hidden;fillColor=none;top=0;left=0;bottom=0;right=0;pointerEvents=1;fontSize=16;rounded=1;fillStyle=auto;fontFamily=Times New Roman;" vertex="1" parent="--crbwpS26JUq3i9r7HL-23">
          <mxGeometry width="60" height="40" as="geometry">
            <mxRectangle width="60" height="40" as="alternateBounds" />
          </mxGeometry>
        </mxCell>
        <mxCell id="--crbwpS26JUq3i9r7HL-25" value="" style="shape=partialRectangle;html=1;whiteSpace=wrap;connectable=0;strokeColor=inherit;overflow=hidden;fillColor=none;top=0;left=0;bottom=0;right=0;pointerEvents=1;fontSize=16;rounded=1;fillStyle=auto;fontFamily=Times New Roman;" vertex="1" parent="--crbwpS26JUq3i9r7HL-23">
          <mxGeometry x="60" width="60" height="40" as="geometry">
            <mxRectangle width="60" height="40" as="alternateBounds" />
          </mxGeometry>
        </mxCell>
        <mxCell id="--crbwpS26JUq3i9r7HL-26" value="" style="shape=partialRectangle;html=1;whiteSpace=wrap;connectable=0;strokeColor=inherit;overflow=hidden;fillColor=none;top=0;left=0;bottom=0;right=0;pointerEvents=1;fontSize=16;rounded=1;fillStyle=auto;fontFamily=Times New Roman;" vertex="1" parent="--crbwpS26JUq3i9r7HL-23">
          <mxGeometry x="120" width="60" height="40" as="geometry">
            <mxRectangle width="60" height="40" as="alternateBounds" />
          </mxGeometry>
        </mxCell>
      </root>
    </mxGraphModel>
  </diagram>
  <diagram id="KrpnV9CwWK39LqiTt0IE" name="第 2 页">
    <mxGraphModel dx="774" dy="380" grid="1" gridSize="10" guides="1" tooltips="1" connect="1" arrows="1" fold="1" page="1" pageScale="1" pageWidth="827" pageHeight="1169" math="0" shadow="0">
      <root>
        <mxCell id="0" />
        <mxCell id="1" parent="0" />
        <mxCell id="2-vvyY6Ytuw7cH7y74Op-1" value="" style="rounded=0;whiteSpace=wrap;html=1;fontFamily=Times New Roman;" parent="1" vertex="1">
          <mxGeometry x="40" y="40" width="480" height="350" as="geometry" />
        </mxCell>
        <mxCell id="2-vvyY6Ytuw7cH7y74Op-2" value="" style="strokeWidth=1;html=1;shadow=0;dashed=0;shape=mxgraph.android.rrect;rSize=0;fillColor=#dae8fc;strokeColor=#6c8ebf;fontFamily=Times New Roman;" parent="1" vertex="1">
          <mxGeometry x="40" y="40" width="240" height="30" as="geometry" />
        </mxCell>
        <mxCell id="2-vvyY6Ytuw7cH7y74Op-3" value="新建任务" style="strokeWidth=1;html=1;shadow=0;dashed=0;shape=mxgraph.android.anchor;fontStyle=1;fontColor=#666666;fontFamily=Times New Roman;" parent="2-vvyY6Ytuw7cH7y74Op-2" vertex="1">
          <mxGeometry width="129.72972972972974" height="30" as="geometry" />
        </mxCell>
        <mxCell id="2-vvyY6Ytuw7cH7y74Op-4" value="任务详情" style="strokeWidth=1;html=1;shadow=0;dashed=0;shape=mxgraph.android.rrect;rSize=0;fontStyle=1;fillColor=none;strokeColor=none;fontColor=#666666;fontFamily=Times New Roman;" parent="2-vvyY6Ytuw7cH7y74Op-2" vertex="1">
          <mxGeometry x="130.05405405405406" width="109.94594594594595" height="30" as="geometry" />
        </mxCell>
        <mxCell id="2-vvyY6Ytuw7cH7y74Op-5" value="" style="strokeWidth=1;html=1;shadow=0;dashed=0;shape=mxgraph.android.rrect;rSize=0;fillColor=#33b5e5;strokeColor=none;fontFamily=Times New Roman;" parent="2-vvyY6Ytuw7cH7y74Op-4" vertex="1">
          <mxGeometry y="27" width="109.94594594594595" height="3" as="geometry" />
        </mxCell>
        <mxCell id="2-vvyY6Ytuw7cH7y74Op-6" value="" style="endArrow=none;html=1;rounded=0;entryX=0.524;entryY=-0.023;entryDx=0;entryDy=0;entryPerimeter=0;exitX=0.523;exitY=0.967;exitDx=0;exitDy=0;exitPerimeter=0;fontFamily=Times New Roman;fillColor=#dae8fc;strokeColor=#6c8ebf;" parent="1" source="2-vvyY6Ytuw7cH7y74Op-2" target="2-vvyY6Ytuw7cH7y74Op-2" edge="1">
          <mxGeometry width="50" height="50" relative="1" as="geometry">
            <mxPoint x="150" y="150" as="sourcePoint" />
            <mxPoint x="200" y="100" as="targetPoint" />
          </mxGeometry>
        </mxCell>
      </root>
    </mxGraphModel>
  </diagram>
  <diagram id="bRg6shqOyklqLX8NB937" name="第 3 页">
    <mxGraphModel dx="1625" dy="797" grid="1" gridSize="10" guides="1" tooltips="1" connect="1" arrows="1" fold="1" page="1" pageScale="1" pageWidth="827" pageHeight="1169" math="0" shadow="0">
      <root>
        <mxCell id="0" />
        <mxCell id="1" parent="0" />
        <mxCell id="BBaheFfbC6xbfJMeLCD8-1" value="" style="rounded=0;whiteSpace=wrap;html=1;fontFamily=Times New Roman;" parent="1" vertex="1">
          <mxGeometry x="40" y="40" width="480" height="350" as="geometry" />
        </mxCell>
        <mxCell id="BBaheFfbC6xbfJMeLCD8-2" value="" style="strokeWidth=1;html=1;shadow=0;dashed=0;shape=mxgraph.android.rrect;rSize=0;fillColor=#dae8fc;strokeColor=#6c8ebf;fontFamily=Times New Roman;" parent="1" vertex="1">
          <mxGeometry x="40" y="40" width="160" height="30" as="geometry" />
        </mxCell>
        <mxCell id="BBaheFfbC6xbfJMeLCD8-3" value="任务信息" style="strokeWidth=1;html=1;shadow=0;dashed=0;shape=mxgraph.android.anchor;fontStyle=1;fontColor=#666666;fontFamily=Times New Roman;" parent="BBaheFfbC6xbfJMeLCD8-2" vertex="1">
          <mxGeometry width="86.48648648648648" height="30" as="geometry" />
        </mxCell>
        <mxCell id="BBaheFfbC6xbfJMeLCD8-4" value="日志" style="strokeWidth=1;html=1;shadow=0;dashed=0;shape=mxgraph.android.rrect;rSize=0;fontStyle=1;fillColor=none;strokeColor=none;fontColor=#666666;fontFamily=Times New Roman;" parent="BBaheFfbC6xbfJMeLCD8-2" vertex="1">
          <mxGeometry x="86.70270270270271" width="73.2972972972973" height="30" as="geometry" />
        </mxCell>
        <mxCell id="BBaheFfbC6xbfJMeLCD8-5" value="" style="strokeWidth=1;html=1;shadow=0;dashed=0;shape=mxgraph.android.rrect;rSize=0;fillColor=#33b5e5;strokeColor=none;fontFamily=Times New Roman;" parent="BBaheFfbC6xbfJMeLCD8-4" vertex="1">
          <mxGeometry y="27" width="73.2972972972973" height="3" as="geometry" />
        </mxCell>
        <mxCell id="BBaheFfbC6xbfJMeLCD8-6" value="" style="endArrow=none;html=1;rounded=0;exitX=0.523;exitY=0.967;exitDx=0;exitDy=0;exitPerimeter=0;fontFamily=Times New Roman;fillColor=#dae8fc;strokeColor=#6c8ebf;" parent="1" source="BBaheFfbC6xbfJMeLCD8-2" edge="1">
          <mxGeometry width="50" height="50" relative="1" as="geometry">
            <mxPoint x="150" y="150" as="sourcePoint" />
            <mxPoint x="124" y="40" as="targetPoint" />
          </mxGeometry>
        </mxCell>
        <mxCell id="BBaheFfbC6xbfJMeLCD8-7" value="" style="strokeWidth=1;html=1;shadow=0;dashed=0;shape=mxgraph.android.rrect;rSize=0;fillColor=#dae8fc;strokeColor=#6c8ebf;fontFamily=Times New Roman;" parent="1" vertex="1">
          <mxGeometry x="200" y="40" width="160" height="30" as="geometry" />
        </mxCell>
        <mxCell id="BBaheFfbC6xbfJMeLCD8-8" value="曲线图" style="strokeWidth=1;html=1;shadow=0;dashed=0;shape=mxgraph.android.anchor;fontStyle=1;fontColor=#666666;fontFamily=Times New Roman;" parent="BBaheFfbC6xbfJMeLCD8-7" vertex="1">
          <mxGeometry width="86.48648648648648" height="30" as="geometry" />
        </mxCell>
        <mxCell id="BBaheFfbC6xbfJMeLCD8-11" value="训练流程" style="strokeWidth=1;html=1;shadow=0;dashed=0;shape=mxgraph.android.anchor;fontStyle=1;fontColor=#666666;fontFamily=Times New Roman;" parent="BBaheFfbC6xbfJMeLCD8-7" vertex="1">
          <mxGeometry x="73.50999999999999" width="86.48648648648648" height="30" as="geometry" />
        </mxCell>
        <mxCell id="BBaheFfbC6xbfJMeLCD8-12" value="" style="endArrow=none;html=1;rounded=0;exitX=0.523;exitY=0.967;exitDx=0;exitDy=0;exitPerimeter=0;fontFamily=Times New Roman;fillColor=#dae8fc;strokeColor=#6c8ebf;" parent="BBaheFfbC6xbfJMeLCD8-7" edge="1">
          <mxGeometry width="50" height="50" relative="1" as="geometry">
            <mxPoint x="79.71000000000004" y="29.999999999999986" as="sourcePoint" />
            <mxPoint x="80" as="targetPoint" />
          </mxGeometry>
        </mxCell>
      </root>
    </mxGraphModel>
  </diagram>
</mxfile>
